<svg width="25" height="20" viewBox="0 0 25 20" fill="none" xmlns="http://www.w3.org/2000/svg">
<path d="M11.6827 4.9934L4.00062 11.5182V18.5604C4.00062 18.7427 4.07086 18.9176 4.19589 19.0465C4.32091 19.1754 4.49048 19.2479 4.66729 19.2479L9.33646 19.2354C9.51269 19.2345 9.68141 19.1616 9.80571 19.0328C9.93001 18.904 9.99979 18.7296 9.99979 18.5479V14.4354C9.99979 14.253 10.07 14.0781 10.1951 13.9492C10.3201 13.8203 10.4896 13.7479 10.6665 13.7479H13.3331C13.5099 13.7479 13.6795 13.8203 13.8045 13.9492C13.9296 14.0781 13.9998 14.253 13.9998 14.4354V18.5449C13.9995 18.6353 14.0166 18.725 14.0499 18.8086C14.0833 18.8923 14.1324 18.9683 14.1943 19.0324C14.2562 19.0965 14.3298 19.1473 14.4109 19.182C14.4919 19.2167 14.5787 19.2345 14.6665 19.2345L19.334 19.2479C19.5108 19.2479 19.6803 19.1754 19.8054 19.0465C19.9304 18.9176 20.0006 18.7427 20.0006 18.5604V11.5135L12.3202 4.9934C12.2299 4.91834 12.1174 4.87741 12.0015 4.87741C11.8855 4.87741 11.773 4.91834 11.6827 4.9934ZM23.8173 9.4282L20.334 6.46723V0.515625C20.334 0.378873 20.2813 0.247722 20.1875 0.151023C20.0937 0.0543247 19.9666 0 19.834 0H17.5006C17.368 0 17.2408 0.0543247 17.1471 0.151023C17.0533 0.247722 17.0006 0.378873 17.0006 0.515625V3.63559L13.2702 0.470508C12.9122 0.16671 12.463 0.000607297 11.9994 0.000607297C11.5358 0.000607297 11.0865 0.16671 10.7285 0.470508L0.181458 9.4282C0.130828 9.47136 0.0889391 9.52438 0.0581858 9.58423C0.0274325 9.64409 0.00841699 9.70961 0.0022259 9.77704C-0.00396519 9.84448 0.00278944 9.91251 0.0221038 9.97726C0.0414182 10.042 0.0729139 10.1022 0.114791 10.1544L1.17729 11.4864C1.21905 11.5388 1.27042 11.5821 1.32846 11.614C1.38649 11.6459 1.45005 11.6656 1.5155 11.6721C1.58094 11.6786 1.64699 11.6718 1.70986 11.6519C1.77273 11.6321 1.83118 11.5996 1.88187 11.5564L11.6827 3.23168C11.773 3.15662 11.8855 3.11569 12.0015 3.11569C12.1174 3.11569 12.2299 3.15662 12.3202 3.23168L22.1215 11.5564C22.1721 11.5996 22.2304 11.6321 22.2932 11.652C22.356 11.6719 22.422 11.6789 22.4874 11.6725C22.5528 11.6661 22.6163 11.6465 22.6743 11.6148C22.7324 11.5831 22.7838 11.5399 22.8256 11.4877L23.8881 10.1557C23.93 10.1032 23.9613 10.0427 23.9804 9.97765C23.9995 9.91263 24.0059 9.84435 23.9994 9.77675C23.9928 9.70915 23.9733 9.64355 23.9421 9.58374C23.9108 9.52392 23.8684 9.47107 23.8173 9.4282Z" fill="white"/>
</svg>
