<svg width="22" height="22" viewBox="0 0 22 22" fill="none" xmlns="http://www.w3.org/2000/svg">
<g clip-path="url(#clip0_129_483)">
<path d="M7.5625 9.28041H14.4375C14.8173 9.28041 15.125 8.97275 15.125 8.59291V7.90541C15.125 7.52556 14.8173 7.21791 14.4375 7.21791H7.5625C7.18266 7.21791 6.875 7.52556 6.875 7.90541V8.59291C6.875 8.97275 7.18266 9.28041 7.5625 9.28041ZM6.875 12.7179C6.875 13.0978 7.18266 13.4054 7.5625 13.4054H14.4375C14.8173 13.4054 15.125 13.0978 15.125 12.7179V12.0304C15.125 11.6506 14.8173 11.3429 14.4375 11.3429H7.5625C7.18266 11.3429 6.875 11.6506 6.875 12.0304V12.7179ZM11 17.9227C10.2945 17.9227 9.58891 17.7053 8.98648 17.27L0 10.7783V19.9367C0 21.0758 0.923398 21.9992 2.0625 21.9992H19.9375C21.0766 21.9992 22 21.0758 22 19.9367V10.7783L13.0135 17.27C12.4111 17.7049 11.7055 17.9227 11 17.9227ZM21.2098 7.00091C20.8295 6.70271 20.469 6.42213 19.9375 6.0208V4.12416C19.9375 2.98505 19.0141 2.06166 17.875 2.06166H14.5428C14.4121 1.96712 14.2905 1.87861 14.1543 1.77978C13.432 1.25255 11.9969 -0.0158831 11 -0.000843988C10.0031 -0.0158831 8.5684 1.25255 7.84566 1.77978C7.70945 1.87861 7.58785 1.96712 7.45723 2.06166H4.125C2.9859 2.06166 2.0625 2.98505 2.0625 4.12416V6.0208C1.53098 6.4217 1.17047 6.70271 0.790195 7.00091C0.544052 7.19381 0.345002 7.44017 0.208104 7.72133C0.0712047 8.0025 4.23589e-05 8.31112 0 8.62384L0 9.08146L4.125 12.0613V4.12416H17.875V12.0613L22 9.08146V8.62384C22 7.99048 21.7087 7.39193 21.2098 7.00091Z" fill="white"/>
</g>
<defs>
<clipPath id="clip0_129_483">
<rect width="22" height="22" fill="white"/>
</clipPath>
</defs>
</svg>
