<svg width="23" height="23" viewBox="0 0 23 23" fill="none" xmlns="http://www.w3.org/2000/svg">
<path d="M0.810453 20.954L5.27972 21.9831C5.76532 22.0945 6.26363 21.8408 6.46106 21.3852L8.52116 16.5717C8.70142 16.1505 8.58086 15.6564 8.22408 15.3687L5.61911 13.2388C7.16434 9.94229 9.86571 7.19953 13.2294 5.6209L15.3619 8.22375C15.6543 8.58024 16.1442 8.70031 16.5652 8.51963L21.3767 6.45473C21.8363 6.25255 22.0896 5.75399 21.9776 5.2685L20.9442 0.800262C20.8365 0.336252 20.4238 0.00130191 19.9383 0.00154392C8.934 0.00702869 0.00523796 8.92749 0.0107313 19.949C0.0109712 20.4302 0.342039 20.8469 0.810453 20.954Z" fill="white"/>
</svg>
