<svg width="19" height="22" viewBox="0 0 19 22" fill="none" xmlns="http://www.w3.org/2000/svg">
<path d="M18.4911 20.625H17.6429V1.03125C17.6429 0.461699 17.1872 0 16.625 0H2.375C1.81285 0 1.35714 0.461699 1.35714 1.03125V20.625H0.508929C0.227873 20.625 0 20.8559 0 21.1406V22H19V21.1406C19 20.8559 18.7721 20.625 18.4911 20.625ZM5.42857 3.26562C5.42857 2.98087 5.65644 2.75 5.9375 2.75H7.63393C7.91498 2.75 8.14286 2.98087 8.14286 3.26562V4.98438C8.14286 5.26913 7.91498 5.5 7.63393 5.5H5.9375C5.65644 5.5 5.42857 5.26913 5.42857 4.98438V3.26562ZM5.42857 7.39062C5.42857 7.10587 5.65644 6.875 5.9375 6.875H7.63393C7.91498 6.875 8.14286 7.10587 8.14286 7.39062V9.10938C8.14286 9.39413 7.91498 9.625 7.63393 9.625H5.9375C5.65644 9.625 5.42857 9.39413 5.42857 9.10938V7.39062ZM7.63393 13.75H5.9375C5.65644 13.75 5.42857 13.5191 5.42857 13.2344V11.5156C5.42857 11.2309 5.65644 11 5.9375 11H7.63393C7.91498 11 8.14286 11.2309 8.14286 11.5156V13.2344C8.14286 13.5191 7.91498 13.75 7.63393 13.75ZM10.8571 20.625H8.14286V17.0156C8.14286 16.7309 8.37073 16.5 8.65179 16.5H10.3482C10.6293 16.5 10.8571 16.7309 10.8571 17.0156V20.625ZM13.5714 13.2344C13.5714 13.5191 13.3436 13.75 13.0625 13.75H11.3661C11.085 13.75 10.8571 13.5191 10.8571 13.2344V11.5156C10.8571 11.2309 11.085 11 11.3661 11H13.0625C13.3436 11 13.5714 11.2309 13.5714 11.5156V13.2344ZM13.5714 9.10938C13.5714 9.39413 13.3436 9.625 13.0625 9.625H11.3661C11.085 9.625 10.8571 9.39413 10.8571 9.10938V7.39062C10.8571 7.10587 11.085 6.875 11.3661 6.875H13.0625C13.3436 6.875 13.5714 7.10587 13.5714 7.39062V9.10938ZM13.5714 4.98438C13.5714 5.26913 13.3436 5.5 13.0625 5.5H11.3661C11.085 5.5 10.8571 5.26913 10.8571 4.98438V3.26562C10.8571 2.98087 11.085 2.75 11.3661 2.75H13.0625C13.3436 2.75 13.5714 2.98087 13.5714 3.26562V4.98438Z" fill="white"/>
</svg>
