<svg width="162" height="60" viewBox="0 0 162 60" fill="none" xmlns="http://www.w3.org/2000/svg">
<g clip-path="url(#clip0_301_129)">
<path fill-rule="evenodd" clip-rule="evenodd" d="M26.5752 45.3255L30.5739 38.3996L34.5726 31.4736H42.5701H50.5675L54.5662 38.3996L58.5648 45.3255L54.5662 52.2515L50.5675 59.1775H42.5701H34.5726L30.5739 52.2515L26.5752 45.3255Z" fill="#E30016"/>
<path fill-rule="evenodd" clip-rule="evenodd" d="M68.6039 15.7651H77.8752H145.841H153.838L157.837 22.6911L161.836 29.617L157.837 36.543L153.838 43.469H145.841H77.8752H68.6039H61.8803L57.8815 36.543L53.8828 29.617L57.8815 22.6911L61.8803 15.7651H68.6039Z" fill="#1A396D"/>
<path fill-rule="evenodd" clip-rule="evenodd" d="M26.5762 13.9965L30.5749 7.07052L34.5736 0.144531H42.5711H50.5685L54.5672 7.07052L58.5659 13.9965L54.5672 20.9224L50.5685 27.8484H42.5711H34.5736L30.5749 20.9224L26.5762 13.9965ZM42.571 3.57616C48.325 3.57616 52.9912 8.24242 52.9912 13.9963C52.9912 19.7503 48.325 24.4166 42.571 24.4166C36.817 24.4166 32.1508 19.7503 32.1508 13.9963C32.1508 8.24242 36.817 3.57616 42.571 3.57616Z" fill="#1A396D"/>
<path fill-rule="evenodd" clip-rule="evenodd" d="M42.5707 8.54688C45.58 8.54688 48.0204 10.9873 48.0204 13.9965C48.0204 17.0059 45.58 19.4462 42.5707 19.4462C39.5615 19.4462 37.1211 17.0059 37.1211 13.9965C37.1211 10.9873 39.5615 8.54688 42.5707 8.54688Z" fill="#E30016"/>
<path fill-rule="evenodd" clip-rule="evenodd" d="M-0.192383 29.617L3.80634 22.6911L7.80512 15.7651H15.8026H23.8L27.7987 22.6911L31.7973 29.617L27.7987 36.543L23.8 43.469H15.8026H7.80512L3.80634 36.543L-0.192383 29.617Z" fill="#1A396D"/>
<path fill-rule="evenodd" clip-rule="evenodd" d="M65.7471 35.0026V24.3822H69.2147L71.2958 31.6273L73.3529 24.3822H76.8285V35.0026H74.6781V26.6422L72.3992 35.0026H70.1685L67.8976 26.6422V35.0026H65.7471ZM79.1315 35.0026V24.3822H87.6376V26.1798H81.4477V28.5338H87.2076V30.3216H81.4477V33.2124H87.8566V35.0026H79.1315ZM92.4039 35.0026V26.1798H89.0002V24.3822H98.1181V26.1798H94.7227V35.0026H92.4039ZM108.772 35.0026H106.25L105.249 32.5892H100.662L99.7159 35.0026H97.2581L101.728 24.3822H104.177L108.772 35.0026ZM104.506 30.8014L102.924 26.8598L101.375 30.8014H104.506ZM110.063 35.0026V24.4687H112.379V33.2124H118.139V35.0026H110.063ZM119.793 35.0026V24.3822H123.509C124.917 24.3822 125.836 24.4365 126.263 24.5428C126.92 24.7012 127.473 25.0474 127.917 25.5814C128.36 26.1156 128.582 26.8054 128.582 27.6486C128.582 28.3015 128.454 28.8504 128.197 29.2931C127.941 29.7381 127.618 30.0867 127.222 30.3415C126.83 30.5937 126.429 30.7618 126.023 30.8435C125.47 30.9448 124.668 30.9967 123.618 30.9967H122.109V35.0026H119.793ZM122.109 26.1798V29.1916H123.375C124.289 29.1916 124.901 29.1373 125.208 29.0259C125.515 28.9147 125.756 28.7416 125.932 28.5042C126.106 28.2669 126.194 27.9924 126.194 27.6784C126.194 27.2925 126.071 26.9736 125.825 26.7215C125.582 26.4717 125.269 26.3135 124.895 26.2515C124.618 26.2021 124.062 26.1798 123.228 26.1798H122.109ZM130.014 29.758C130.014 28.6749 130.188 27.7673 130.538 27.0329C130.8 26.4938 131.155 26.0067 131.606 25.5765C132.058 25.1487 132.552 24.8298 133.089 24.6221C133.805 24.3401 134.628 24.2017 135.563 24.2017C137.254 24.2017 138.606 24.6863 139.621 25.6581C140.636 26.6275 141.144 27.9775 141.144 29.706C141.144 31.422 140.639 32.7623 139.632 33.7317C138.625 34.6985 137.278 35.1831 135.595 35.1831C133.888 35.1831 132.531 34.7009 131.523 33.739C130.516 32.7746 130.014 31.4468 130.014 29.758ZM132.4 29.6861C132.4 30.888 132.702 31.8004 133.3 32.421C133.901 33.0417 134.663 33.3508 135.587 33.3508C136.509 33.3508 137.267 33.0441 137.86 32.426C138.451 31.8103 138.747 30.888 138.747 29.6565C138.747 28.44 138.459 27.5325 137.884 26.9316C137.307 26.3332 136.541 26.0339 135.587 26.0339C134.631 26.0339 133.861 26.3381 133.276 26.9439C132.694 27.5498 132.4 28.4622 132.4 29.6861ZM143.014 35.0026V24.4687H145.33V33.2124H151.09V35.0026H143.014Z" fill="white"/>
</g>
<defs>
<clipPath id="clip0_301_129">
<rect width="162" height="59.0467" fill="white"/>
</clipPath>
</defs>
</svg>
